# MagicaVoxel @ Ephtracy

# group
o 

# material
mtllib coração desenho.mtl
usemtl palette

# normals
vn -1 0 0
vn 1 0 0
vn 0 0 1
vn 0 0 -1
vn 0 -1 0
vn 0 1 0

# texcoords
vt 0.146484 0.5
vt 0.916016 0.5
vt 0.994141 0.5

# verts
v 0 0 -0.3
v 0 0 -0.5
v 0 0.1 -0.2
v 0 0.1 -0.3
v 0 0.1 -0.5
v 0 0.1 -0.6
v 0 0.2 -0.1
v 0 0.2 -0.2
v 0 0.2 -0.3
v 0 0.2 -0.5
v 0 0.2 -0.6
v 0 0.2 -0.7
v 0 0.3 0
v 0 0.3 -0.1
v 0 0.3 -0.2
v 0 0.3 -0.6
v 0 0.3 -0.7
v 0 0.3 -0.8
v 0 0.4 0.1
v 0 0.4 0
v 0 0.4 -0.1
v 0 0.4 -0.7
v 0 0.4 -0.8
v 0 0.4 -0.9
v 0 0.5 0.2
v 0 0.5 0.1
v 0 0.5 0
v 0 0.5 -0.8
v 0 0.5 -0.9
v 0 0.5 -1
v 0 0.6 0.3
v 0 0.6 0.2
v 0 0.6 0.1
v 0 0.6 -0.9
v 0 0.6 -1
v 0 0.6 -1.1
v 0 0.7 -0.8
v 0 0.7 -0.9
v 0 0.8 -0.8
v 0 0.8 -0.9
v 0 0.9 -0.8
v 0 0.9 -0.9
v 0 1 -0.7
v 0 1 -0.8
v 0 1.1 -0.2
v 0 1.1 -0.6
v 0 1.1 -0.7
v 0 1.1 -0.9
v 0 1.2 0.3
v 0 1.2 0.2
v 0 1.2 0.1
v 0 1.2 -0.3
v 0 1.2 -0.5
v 0 1.2 -0.9
v 0 1.2 -1
v 0 1.2 -1.1
v 0 1.3 0.2
v 0 1.3 0.1
v 0 1.3 -0.2
v 0 1.3 -0.3
v 0 1.3 -0.5
v 0 1.3 -0.6
v 0 1.3 -0.9
v 0 1.3 -1
v 0 1.4 0.1
v 0 1.4 -0.2
v 0 1.4 -0.6
v 0 1.4 -0.9
v 0.1 0 -0.3
v 0.1 0 -0.5
v 0.1 0.1 -0.2
v 0.1 0.1 -0.3
v 0.1 0.1 -0.5
v 0.1 0.1 -0.6
v 0.1 0.2 -0.1
v 0.1 0.2 -0.2
v 0.1 0.2 -0.3
v 0.1 0.2 -0.5
v 0.1 0.2 -0.6
v 0.1 0.2 -0.7
v 0.1 0.3 0
v 0.1 0.3 -0.1
v 0.1 0.3 -0.2
v 0.1 0.3 -0.6
v 0.1 0.3 -0.7
v 0.1 0.3 -0.8
v 0.1 0.4 0.1
v 0.1 0.4 0
v 0.1 0.4 -0.1
v 0.1 0.4 -0.7
v 0.1 0.4 -0.8
v 0.1 0.4 -0.9
v 0.1 0.5 0.2
v 0.1 0.5 0.1
v 0.1 0.5 0
v 0.1 0.5 -0.8
v 0.1 0.5 -0.9
v 0.1 0.5 -1
v 0.1 0.6 0.3
v 0.1 0.6 0.2
v 0.1 0.6 0.1
v 0.1 0.6 -0.9
v 0.1 0.6 -1
v 0.1 0.6 -1.1
v 0.1 0.7 -0.8
v 0.1 0.7 -0.9
v 0.1 0.8 -0.8
v 0.1 0.8 -0.9
v 0.1 0.9 -0.8
v 0.1 0.9 -0.9
v 0.1 1 -0.7
v 0.1 1 -0.8
v 0.1 1.1 -0.2
v 0.1 1.1 -0.6
v 0.1 1.1 -0.7
v 0.1 1.1 -0.9
v 0.1 1.2 0.3
v 0.1 1.2 0.2
v 0.1 1.2 0.1
v 0.1 1.2 -0.3
v 0.1 1.2 -0.5
v 0.1 1.2 -0.9
v 0.1 1.2 -1
v 0.1 1.2 -1.1
v 0.1 1.3 0.2
v 0.1 1.3 0.1
v 0.1 1.3 -0.2
v 0.1 1.3 -0.3
v 0.1 1.3 -0.5
v 0.1 1.3 -0.6
v 0.1 1.3 -0.9
v 0.1 1.3 -1
v 0.1 1.4 0.1
v 0.1 1.4 -0.2
v 0.1 1.4 -0.6
v 0.1 1.4 -0.9
v 0 0.6 0.3
v 0 1.2 0.3
v 0.1 0.6 0.3
v 0.1 1.2 0.3
v 0 0.5 0.2
v 0 0.6 0.2
v 0 1.2 0.2
v 0 1.3 0.2
v 0.1 0.5 0.2
v 0.1 0.6 0.2
v 0.1 1.2 0.2
v 0.1 1.3 0.2
v 0 0.4 0.1
v 0 0.5 0.1
v 0 1.3 0.1
v 0 1.4 0.1
v 0.1 0.4 0.1
v 0.1 0.5 0.1
v 0.1 1.3 0.1
v 0.1 1.4 0.1
v 0 0.3 0
v 0 0.4 0
v 0.1 0.3 0
v 0.1 0.4 0
v 0 0.2 -0.1
v 0 0.3 -0.1
v 0.1 0.2 -0.1
v 0.1 0.3 -0.1
v 0 0.1 -0.2
v 0 0.2 -0.2
v 0.1 0.1 -0.2
v 0.1 0.2 -0.2
v 0 0 -0.3
v 0 0.1 -0.3
v 0.1 0 -0.3
v 0.1 0.1 -0.3
v 0 1.2 -0.5
v 0 1.3 -0.5
v 0.1 1.2 -0.5
v 0.1 1.3 -0.5
v 0 1.3 -0.6
v 0 1.4 -0.6
v 0.1 1.3 -0.6
v 0.1 1.4 -0.6
v 0 1.3 -0.2
v 0 1.4 -0.2
v 0.1 1.3 -0.2
v 0.1 1.4 -0.2
v 0 1.2 -0.3
v 0 1.3 -0.3
v 0.1 1.2 -0.3
v 0.1 1.3 -0.3
v 0 0 -0.5
v 0 0.1 -0.5
v 0.1 0 -0.5
v 0.1 0.1 -0.5
v 0 0.1 -0.6
v 0 0.2 -0.6
v 0.1 0.1 -0.6
v 0.1 0.2 -0.6
v 0 0.2 -0.7
v 0 0.3 -0.7
v 0.1 0.2 -0.7
v 0.1 0.3 -0.7
v 0 0.3 -0.8
v 0 0.4 -0.8
v 0.1 0.3 -0.8
v 0.1 0.4 -0.8
v 0 0.4 -0.9
v 0 0.5 -0.9
v 0 1.3 -0.9
v 0 1.4 -0.9
v 0.1 0.4 -0.9
v 0.1 0.5 -0.9
v 0.1 1.3 -0.9
v 0.1 1.4 -0.9
v 0 0.5 -1
v 0 0.6 -1
v 0 1.2 -1
v 0 1.3 -1
v 0.1 0.5 -1
v 0.1 0.6 -1
v 0.1 1.2 -1
v 0.1 1.3 -1
v 0 0.6 -1.1
v 0 1.2 -1.1
v 0.1 0.6 -1.1
v 0.1 1.2 -1.1
v 0 0 -0.3
v 0.1 0 -0.3
v 0 0 -0.5
v 0.1 0 -0.5
v 0 0.1 -0.2
v 0.1 0.1 -0.2
v 0 0.1 -0.3
v 0.1 0.1 -0.3
v 0 0.1 -0.5
v 0.1 0.1 -0.5
v 0 0.1 -0.6
v 0.1 0.1 -0.6
v 0 0.2 -0.1
v 0.1 0.2 -0.1
v 0 0.2 -0.2
v 0.1 0.2 -0.2
v 0 0.2 -0.6
v 0.1 0.2 -0.6
v 0 0.2 -0.7
v 0.1 0.2 -0.7
v 0 0.3 0
v 0.1 0.3 0
v 0 0.3 -0.1
v 0.1 0.3 -0.1
v 0 0.3 -0.7
v 0.1 0.3 -0.7
v 0 0.3 -0.8
v 0.1 0.3 -0.8
v 0 0.4 0.1
v 0.1 0.4 0.1
v 0 0.4 0
v 0.1 0.4 0
v 0 0.4 -0.8
v 0.1 0.4 -0.8
v 0 0.4 -0.9
v 0.1 0.4 -0.9
v 0 0.5 0.2
v 0.1 0.5 0.2
v 0 0.5 0.1
v 0.1 0.5 0.1
v 0 0.5 -0.9
v 0.1 0.5 -0.9
v 0 0.5 -1
v 0.1 0.5 -1
v 0 0.6 0.3
v 0.1 0.6 0.3
v 0 0.6 0.2
v 0.1 0.6 0.2
v 0 0.6 -1
v 0.1 0.6 -1
v 0 0.6 -1.1
v 0.1 0.6 -1.1
v 0 1.2 0.3
v 0.1 1.2 0.3
v 0 1.2 0.2
v 0.1 1.2 0.2
v 0 1.2 -0.3
v 0.1 1.2 -0.3
v 0 1.2 -0.5
v 0.1 1.2 -0.5
v 0 1.2 -1
v 0.1 1.2 -1
v 0 1.2 -1.1
v 0.1 1.2 -1.1
v 0 1.3 0.2
v 0.1 1.3 0.2
v 0 1.3 0.1
v 0.1 1.3 0.1
v 0 1.3 -0.2
v 0.1 1.3 -0.2
v 0 1.3 -0.3
v 0.1 1.3 -0.3
v 0 1.3 -0.5
v 0.1 1.3 -0.5
v 0 1.3 -0.6
v 0.1 1.3 -0.6
v 0 1.3 -0.9
v 0.1 1.3 -0.9
v 0 1.3 -1
v 0.1 1.3 -1
v 0 1.4 0.1
v 0.1 1.4 0.1
v 0 1.4 -0.2
v 0.1 1.4 -0.2
v 0 1.4 -0.6
v 0.1 1.4 -0.6
v 0 1.4 -0.9
v 0.1 1.4 -0.9

# faces
f 4/3/1 2/3/1 1/3/1
f 5/3/1 2/3/1 4/3/1
f 8/3/1 4/3/1 3/3/1
f 9/1/1 5/1/1 4/1/1
f 9/3/1 4/3/1 8/3/1
f 10/3/1 6/3/1 5/3/1
f 10/1/1 5/1/1 9/1/1
f 11/3/1 6/3/1 10/3/1
f 14/3/1 8/3/1 7/3/1
f 15/1/1 9/1/1 8/1/1
f 15/1/1 10/1/1 9/1/1
f 15/3/1 8/3/1 14/3/1
f 15/1/1 11/1/1 10/1/1
f 16/3/1 12/3/1 11/3/1
f 16/1/1 11/1/1 15/1/1
f 17/3/1 12/3/1 16/3/1
f 20/3/1 14/3/1 13/3/1
f 21/1/1 15/1/1 14/1/1
f 21/1/1 16/1/1 15/1/1
f 21/3/1 14/3/1 20/3/1
f 21/1/1 17/1/1 16/1/1
f 22/3/1 18/3/1 17/3/1
f 22/1/1 17/1/1 21/1/1
f 23/3/1 18/3/1 22/3/1
f 26/3/1 20/3/1 19/3/1
f 27/1/1 21/1/1 20/1/1
f 27/1/1 22/1/1 21/1/1
f 27/3/1 20/3/1 26/3/1
f 27/1/1 23/1/1 22/1/1
f 28/3/1 24/3/1 23/3/1
f 28/1/1 23/1/1 27/1/1
f 29/3/1 24/3/1 28/3/1
f 32/3/1 26/3/1 25/3/1
f 33/1/1 27/1/1 26/1/1
f 33/1/1 28/1/1 27/1/1
f 33/3/1 26/3/1 32/3/1
f 33/1/1 29/1/1 28/1/1
f 34/3/1 30/3/1 29/3/1
f 34/1/1 29/1/1 33/1/1
f 35/3/1 30/3/1 34/3/1
f 37/1/1 33/1/1 32/1/1
f 37/1/1 34/1/1 33/1/1
f 37/1/1 35/1/1 34/1/1
f 38/1/1 35/1/1 37/1/1
f 39/1/1 37/1/1 32/1/1
f 39/2/1 38/2/1 37/2/1
f 40/1/1 35/1/1 38/1/1
f 40/2/1 38/2/1 39/2/1
f 41/1/1 39/1/1 32/1/1
f 41/1/1 40/1/1 39/1/1
f 42/1/1 35/1/1 40/1/1
f 42/1/1 40/1/1 41/1/1
f 43/1/1 41/1/1 32/1/1
f 44/2/1 42/2/1 41/2/1
f 44/1/1 41/1/1 43/1/1
f 45/1/1 43/1/1 32/1/1
f 46/1/1 43/1/1 45/1/1
f 47/2/1 44/2/1 43/2/1
f 47/1/1 43/1/1 46/1/1
f 48/1/1 35/1/1 42/1/1
f 48/2/1 44/2/1 47/2/1
f 48/2/1 42/2/1 44/2/1
f 49/3/1 32/3/1 31/3/1
f 50/1/1 45/1/1 32/1/1
f 50/3/1 32/3/1 49/3/1
f 51/1/1 45/1/1 50/1/1
f 52/3/1 46/3/1 45/3/1
f 53/3/1 46/3/1 52/3/1
f 54/1/1 35/1/1 48/1/1
f 54/1/1 47/1/1 46/1/1
f 54/1/1 48/1/1 47/1/1
f 55/3/1 36/3/1 35/3/1
f 55/1/1 35/1/1 54/1/1
f 56/3/1 36/3/1 55/3/1
f 57/3/1 51/3/1 50/3/1
f 58/1/1 45/1/1 51/1/1
f 58/3/1 51/3/1 57/3/1
f 59/3/1 52/3/1 45/3/1
f 59/1/1 45/1/1 58/1/1
f 60/3/1 52/3/1 59/3/1
f 61/3/1 46/3/1 53/3/1
f 62/1/1 54/1/1 46/1/1
f 62/3/1 46/3/1 61/3/1
f 63/3/1 55/3/1 54/3/1
f 63/1/1 54/1/1 62/1/1
f 64/3/1 55/3/1 63/3/1
f 65/3/1 59/3/1 58/3/1
f 66/3/1 59/3/1 65/3/1
f 67/3/1 63/3/1 62/3/1
f 68/3/1 63/3/1 67/3/1
f 69/3/2 70/3/2 72/3/2
f 72/3/2 70/3/2 73/3/2
f 71/3/2 72/3/2 76/3/2
f 72/1/2 73/1/2 77/1/2
f 76/3/2 72/3/2 77/3/2
f 73/3/2 74/3/2 78/3/2
f 77/1/2 73/1/2 78/1/2
f 78/3/2 74/3/2 79/3/2
f 75/3/2 76/3/2 82/3/2
f 76/1/2 77/1/2 83/1/2
f 77/1/2 78/1/2 83/1/2
f 82/3/2 76/3/2 83/3/2
f 78/1/2 79/1/2 83/1/2
f 79/3/2 80/3/2 84/3/2
f 83/1/2 79/1/2 84/1/2
f 84/3/2 80/3/2 85/3/2
f 81/3/2 82/3/2 88/3/2
f 82/1/2 83/1/2 89/1/2
f 83/1/2 84/1/2 89/1/2
f 88/3/2 82/3/2 89/3/2
f 84/1/2 85/1/2 89/1/2
f 85/3/2 86/3/2 90/3/2
f 89/1/2 85/1/2 90/1/2
f 90/3/2 86/3/2 91/3/2
f 87/3/2 88/3/2 94/3/2
f 88/1/2 89/1/2 95/1/2
f 89/1/2 90/1/2 95/1/2
f 94/3/2 88/3/2 95/3/2
f 90/1/2 91/1/2 95/1/2
f 91/3/2 92/3/2 96/3/2
f 95/1/2 91/1/2 96/1/2
f 96/3/2 92/3/2 97/3/2
f 93/3/2 94/3/2 100/3/2
f 94/1/2 95/1/2 101/1/2
f 95/1/2 96/1/2 101/1/2
f 100/3/2 94/3/2 101/3/2
f 96/1/2 97/1/2 101/1/2
f 97/3/2 98/3/2 102/3/2
f 101/1/2 97/1/2 102/1/2
f 102/3/2 98/3/2 103/3/2
f 100/1/2 101/1/2 105/1/2
f 101/1/2 102/1/2 105/1/2
f 102/1/2 103/1/2 105/1/2
f 105/1/2 103/1/2 106/1/2
f 100/1/2 105/1/2 107/1/2
f 105/2/2 106/2/2 107/2/2
f 106/1/2 103/1/2 108/1/2
f 107/2/2 106/2/2 108/2/2
f 100/1/2 107/1/2 109/1/2
f 107/1/2 108/1/2 109/1/2
f 108/1/2 103/1/2 110/1/2
f 109/1/2 108/1/2 110/1/2
f 100/1/2 109/1/2 111/1/2
f 109/2/2 110/2/2 112/2/2
f 111/1/2 109/1/2 112/1/2
f 100/1/2 111/1/2 113/1/2
f 113/1/2 111/1/2 114/1/2
f 111/2/2 112/2/2 115/2/2
f 114/1/2 111/1/2 115/1/2
f 110/1/2 103/1/2 116/1/2
f 115/2/2 112/2/2 116/2/2
f 112/2/2 110/2/2 116/2/2
f 99/3/2 100/3/2 117/3/2
f 100/1/2 113/1/2 118/1/2
f 117/3/2 100/3/2 118/3/2
f 118/1/2 113/1/2 119/1/2
f 113/3/2 114/3/2 120/3/2
f 120/3/2 114/3/2 121/3/2
f 116/1/2 103/1/2 122/1/2
f 114/1/2 115/1/2 122/1/2
f 115/1/2 116/1/2 122/1/2
f 103/3/2 104/3/2 123/3/2
f 122/1/2 103/1/2 123/1/2
f 123/3/2 104/3/2 124/3/2
f 118/3/2 119/3/2 125/3/2
f 119/1/2 113/1/2 126/1/2
f 125/3/2 119/3/2 126/3/2
f 113/3/2 120/3/2 127/3/2
f 126/1/2 113/1/2 127/1/2
f 127/3/2 120/3/2 128/3/2
f 121/3/2 114/3/2 129/3/2
f 114/1/2 122/1/2 130/1/2
f 129/3/2 114/3/2 130/3/2
f 122/3/2 123/3/2 131/3/2
f 130/1/2 122/1/2 131/1/2
f 131/3/2 123/3/2 132/3/2
f 126/3/2 127/3/2 133/3/2
f 133/3/2 127/3/2 134/3/2
f 130/3/2 131/3/2 135/3/2
f 135/3/2 131/3/2 136/3/2
f 139/3/3 138/3/3 137/3/3
f 140/3/3 138/3/3 139/3/3
f 145/3/3 142/3/3 141/3/3
f 146/3/3 142/3/3 145/3/3
f 147/3/3 144/3/3 143/3/3
f 148/3/3 144/3/3 147/3/3
f 153/3/3 150/3/3 149/3/3
f 154/3/3 150/3/3 153/3/3
f 155/3/3 152/3/3 151/3/3
f 156/3/3 152/3/3 155/3/3
f 159/3/3 158/3/3 157/3/3
f 160/3/3 158/3/3 159/3/3
f 163/3/3 162/3/3 161/3/3
f 164/3/3 162/3/3 163/3/3
f 167/3/3 166/3/3 165/3/3
f 168/3/3 166/3/3 167/3/3
f 171/3/3 170/3/3 169/3/3
f 172/3/3 170/3/3 171/3/3
f 175/3/3 174/3/3 173/3/3
f 176/3/3 174/3/3 175/3/3
f 179/3/3 178/3/3 177/3/3
f 180/3/3 178/3/3 179/3/3
f 181/3/4 182/3/4 183/3/4
f 183/3/4 182/3/4 184/3/4
f 185/3/4 186/3/4 187/3/4
f 187/3/4 186/3/4 188/3/4
f 189/3/4 190/3/4 191/3/4
f 191/3/4 190/3/4 192/3/4
f 193/3/4 194/3/4 195/3/4
f 195/3/4 194/3/4 196/3/4
f 197/3/4 198/3/4 199/3/4
f 199/3/4 198/3/4 200/3/4
f 201/3/4 202/3/4 203/3/4
f 203/3/4 202/3/4 204/3/4
f 205/3/4 206/3/4 209/3/4
f 209/3/4 206/3/4 210/3/4
f 207/3/4 208/3/4 211/3/4
f 211/3/4 208/3/4 212/3/4
f 213/3/4 214/3/4 217/3/4
f 217/3/4 214/3/4 218/3/4
f 215/3/4 216/3/4 219/3/4
f 219/3/4 216/3/4 220/3/4
f 221/3/4 222/3/4 223/3/4
f 223/3/4 222/3/4 224/3/4
f 227/3/5 226/3/5 225/3/5
f 228/3/5 226/3/5 227/3/5
f 231/3/5 230/3/5 229/3/5
f 232/3/5 230/3/5 231/3/5
f 235/3/5 234/3/5 233/3/5
f 236/3/5 234/3/5 235/3/5
f 239/3/5 238/3/5 237/3/5
f 240/3/5 238/3/5 239/3/5
f 243/3/5 242/3/5 241/3/5
f 244/3/5 242/3/5 243/3/5
f 247/3/5 246/3/5 245/3/5
f 248/3/5 246/3/5 247/3/5
f 251/3/5 250/3/5 249/3/5
f 252/3/5 250/3/5 251/3/5
f 255/3/5 254/3/5 253/3/5
f 256/3/5 254/3/5 255/3/5
f 259/3/5 258/3/5 257/3/5
f 260/3/5 258/3/5 259/3/5
f 263/3/5 262/3/5 261/3/5
f 264/3/5 262/3/5 263/3/5
f 267/3/5 266/3/5 265/3/5
f 268/3/5 266/3/5 267/3/5
f 271/3/5 270/3/5 269/3/5
f 272/3/5 270/3/5 271/3/5
f 275/3/5 274/3/5 273/3/5
f 276/3/5 274/3/5 275/3/5
f 277/3/6 278/3/6 279/3/6
f 279/3/6 278/3/6 280/3/6
f 281/3/6 282/3/6 283/3/6
f 283/3/6 282/3/6 284/3/6
f 285/3/6 286/3/6 287/3/6
f 287/3/6 286/3/6 288/3/6
f 289/3/6 290/3/6 291/3/6
f 291/3/6 290/3/6 292/3/6
f 293/3/6 294/3/6 295/3/6
f 295/3/6 294/3/6 296/3/6
f 297/3/6 298/3/6 299/3/6
f 299/3/6 298/3/6 300/3/6
f 301/3/6 302/3/6 303/3/6
f 303/3/6 302/3/6 304/3/6
f 305/3/6 306/3/6 307/3/6
f 307/3/6 306/3/6 308/3/6
f 309/3/6 310/3/6 311/3/6
f 311/3/6 310/3/6 312/3/6
