# MagicaVoxel @ Ephtracy

# group
o 

# material
mtllib corredor montadinho-7.mtl
usemtl palette

# normals
vn -1 0 0
vn 1 0 0
vn 0 0 1
vn 0 0 -1
vn 0 -1 0
vn 0 1 0

# texcoords
vt 0.962891 0.5
vt 0.966797 0.5
vt 0.970703 0.5
vt 0.978516 0.5
vt 0.990234 0.5

# verts
v -5.1 26.5 38.5
v -5.1 26.5 12.9
v -5.1 26.6 38.5
v -5.1 26.6 23.1
v -5.1 26.6 21
v -5.1 26.6 12.9
v -5.1 29.9 23.1
v -5.1 29.9 21
v -5.1 32 38.5
v -5.1 32 12.9
v -5.1 32.1 38.5
v -5.1 32.1 12.9
v 4.4 29.9 21
v 4.4 29.9 20.9
v 4.4 30.2 21
v 4.4 30.2 20.9
v 5.1 26.6 38.5
v 5.1 26.6 23.1
v 5.1 26.6 21
v 5.1 26.6 12.9
v 5.1 29.9 23.1
v 5.1 29.9 21
v 5.1 29.9 20.9
v 5.1 30.2 21
v 5.1 30.2 20.9
v 5.1 32 38.5
v 5.1 32 12.9
v -5 26.6 38.5
v -5 26.6 23.1
v -5 26.6 21
v -5 26.6 12.9
v -5 29.9 23.1
v -5 29.9 21
v -5 29.9 20.9
v -5 30.2 21
v -5 30.2 20.9
v -5 32 38.5
v -5 32 12.9
v -4.3 29.9 21
v -4.3 29.9 20.9
v -4.3 30.2 21
v -4.3 30.2 20.9
v 5.2 26.5 38.5
v 5.2 26.5 12.9
v 5.2 26.6 23.1
v 5.2 26.6 21
v 5.2 29.9 23.1
v 5.2 29.9 21
v 5.2 32 38.5
v 5.2 32 12.9
v 5.2 32.1 38.5
v 5.2 32.1 12.9
v -5.1 26.5 38.5
v -5.1 26.6 38.5
v -5.1 32 38.5
v -5.1 32.1 38.5
v -5 26.6 38.5
v -5 32 38.5
v -5 32.1 38.5
v 5.1 26.5 38.5
v 5.1 26.6 38.5
v 5.1 32 38.5
v 5.1 32.1 38.5
v 5.2 26.5 38.5
v 5.2 32 38.5
v 5.2 32.1 38.5
v -5.1 26.6 21
v -5.1 29.9 21
v -5 26.6 21
v -5 29.9 21
v -5 30.2 21
v -4.9 29.9 21
v -4.9 30.2 21
v -4.3 29.9 21
v -4.3 30.2 21
v 4.4 29.9 21
v 4.4 30.2 21
v 5 29.9 21
v 5 30.2 21
v 5.1 26.6 21
v 5.1 29.9 21
v 5.1 30.2 21
v 5.2 26.6 21
v 5.2 29.9 21
v -5.1 26.6 23.1
v -5.1 29.9 23.1
v -5 26.6 23.1
v -5 29.9 23.1
v 5.1 26.6 23.1
v 5.1 29.9 23.1
v 5.2 26.6 23.1
v 5.2 29.9 23.1
v -5 29.9 20.9
v -5 30.2 20.9
v -4.9 29.9 20.9
v -4.9 30.2 20.9
v -4.3 29.9 20.9
v -4.3 30.2 20.9
v 4.4 29.9 20.9
v 4.4 30.2 20.9
v 5 29.9 20.9
v 5 30.2 20.9
v 5.1 29.9 20.9
v 5.1 30.2 20.9
v -5.1 26.5 12.9
v -5.1 26.6 12.9
v -5.1 32 12.9
v -5.1 32.1 12.9
v -5 26.6 12.9
v -5 32 12.9
v -5 32.1 12.9
v 5.1 26.5 12.9
v 5.1 26.6 12.9
v 5.1 32 12.9
v 5.1 32.1 12.9
v 5.2 26.5 12.9
v 5.2 32 12.9
v 5.2 32.1 12.9
v -5.1 26.5 38.5
v 5.1 26.5 38.5
v 5.2 26.5 38.5
v -5.1 26.5 12.9
v 5.1 26.5 12.9
v 5.2 26.5 12.9
v -5.1 29.9 23.1
v -5 29.9 23.1
v 5.1 29.9 23.1
v 5.2 29.9 23.1
v -5.1 29.9 21
v -5 29.9 21
v -4.9 29.9 21
v -4.3 29.9 21
v 4.4 29.9 21
v 5 29.9 21
v 5.1 29.9 21
v 5.2 29.9 21
v -5 29.9 20.9
v -4.9 29.9 20.9
v -4.3 29.9 20.9
v 4.4 29.9 20.9
v 5 29.9 20.9
v 5.1 29.9 20.9
v -5 32 38.5
v 5.1 32 38.5
v -5 32 12.9
v 5.1 32 12.9
v -5 26.6 38.5
v 5.1 26.6 38.5
v -5.1 26.6 23.1
v -5 26.6 23.1
v 5.1 26.6 23.1
v 5.2 26.6 23.1
v -5.1 26.6 21
v -5 26.6 21
v 5.1 26.6 21
v 5.2 26.6 21
v -5 26.6 12.9
v 5.1 26.6 12.9
v -5 30.2 21
v -4.9 30.2 21
v -4.3 30.2 21
v 4.4 30.2 21
v 5 30.2 21
v 5.1 30.2 21
v -5 30.2 20.9
v -4.9 30.2 20.9
v -4.3 30.2 20.9
v 4.4 30.2 20.9
v 5 30.2 20.9
v 5.1 30.2 20.9
v -5.1 32.1 38.5
v -5 32.1 38.5
v 5.1 32.1 38.5
v 5.2 32.1 38.5
v -5.1 32.1 12.9
v -5 32.1 12.9
v 5.1 32.1 12.9
v 5.2 32.1 12.9

# faces
f 3/3/1 2/3/1 1/3/1
f 4/3/1 2/3/1 3/3/1
f 5/3/1 2/3/1 4/3/1
f 6/3/1 2/3/1 5/3/1
f 7/5/1 4/5/1 3/5/1
f 8/5/1 6/5/1 5/5/1
f 9/5/1 7/5/1 3/5/1
f 9/5/1 8/5/1 7/5/1
f 10/5/1 6/5/1 8/5/1
f 10/5/1 8/5/1 9/5/1
f 11/3/1 10/3/1 9/3/1
f 12/3/1 10/3/1 11/3/1
f 15/1/1 14/1/1 13/1/1
f 16/1/1 14/1/1 15/1/1
f 21/5/1 18/5/1 17/5/1
f 22/5/1 20/5/1 19/5/1
f 23/5/1 20/5/1 22/5/1
f 24/5/1 22/5/1 21/5/1
f 25/5/1 20/5/1 23/5/1
f 26/5/1 21/5/1 17/5/1
f 26/5/1 25/5/1 24/5/1
f 26/5/1 24/5/1 21/5/1
f 27/5/1 20/5/1 25/5/1
f 27/5/1 25/5/1 26/5/1
f 28/5/2 29/5/2 32/5/2
f 30/5/2 31/5/2 33/5/2
f 33/5/2 31/5/2 34/5/2
f 32/5/2 33/5/2 35/5/2
f 34/5/2 31/5/2 36/5/2
f 28/5/2 32/5/2 37/5/2
f 35/5/2 36/5/2 37/5/2
f 32/5/2 35/5/2 37/5/2
f 36/5/2 31/5/2 38/5/2
f 37/5/2 36/5/2 38/5/2
f 39/1/2 40/1/2 41/1/2
f 41/1/2 40/1/2 42/1/2
f 43/5/2 44/5/2 45/5/2
f 45/5/2 44/5/2 46/5/2
f 43/5/2 45/5/2 47/5/2
f 46/5/2 44/5/2 48/5/2
f 43/5/2 47/5/2 49/5/2
f 47/5/2 48/5/2 49/5/2
f 48/5/2 44/5/2 50/5/2
f 49/5/2 48/5/2 50/5/2
f 49/3/2 50/3/2 51/3/2
f 51/3/2 50/3/2 52/3/2
f 57/3/3 54/3/3 53/3/3
f 57/5/3 55/5/3 54/5/3
f 58/3/3 56/3/3 55/3/3
f 58/5/3 55/5/3 57/5/3
f 59/3/3 56/3/3 58/3/3
f 60/3/3 57/3/3 53/3/3
f 61/3/3 57/3/3 60/3/3
f 62/2/3 59/2/3 58/2/3
f 63/2/3 59/2/3 62/2/3
f 64/5/3 61/5/3 60/5/3
f 64/5/3 62/5/3 61/5/3
f 65/3/3 63/3/3 62/3/3
f 65/5/3 62/5/3 64/5/3
f 66/3/3 63/3/3 65/3/3
f 69/5/3 68/5/3 67/5/3
f 70/5/3 68/5/3 69/5/3
f 72/4/3 71/4/3 70/4/3
f 73/4/3 71/4/3 72/4/3
f 74/1/3 73/1/3 72/1/3
f 75/1/3 73/1/3 74/1/3
f 78/1/3 77/1/3 76/1/3
f 79/1/3 77/1/3 78/1/3
f 81/4/3 79/4/3 78/4/3
f 82/4/3 79/4/3 81/4/3
f 83/5/3 81/5/3 80/5/3
f 84/5/3 81/5/3 83/5/3
f 85/5/4 86/5/4 87/5/4
f 87/5/4 86/5/4 88/5/4
f 89/5/4 90/5/4 91/5/4
f 91/5/4 90/5/4 92/5/4
f 93/4/4 94/4/4 95/4/4
f 95/4/4 94/4/4 96/4/4
f 95/1/4 96/1/4 97/1/4
f 97/1/4 96/1/4 98/1/4
f 99/1/4 100/1/4 101/1/4
f 101/1/4 100/1/4 102/1/4
f 101/4/4 102/4/4 103/4/4
f 103/4/4 102/4/4 104/4/4
f 105/3/4 106/3/4 109/3/4
f 106/5/4 107/5/4 109/5/4
f 107/3/4 108/3/4 110/3/4
f 109/5/4 107/5/4 110/5/4
f 110/3/4 108/3/4 111/3/4
f 105/3/4 109/3/4 112/3/4
f 112/3/4 109/3/4 113/3/4
f 110/2/4 111/2/4 114/2/4
f 114/2/4 111/2/4 115/2/4
f 112/5/4 113/5/4 116/5/4
f 113/5/4 114/5/4 116/5/4
f 114/3/4 115/3/4 117/3/4
f 116/5/4 114/5/4 117/5/4
f 117/3/4 115/3/4 118/3/4
f 122/3/5 120/3/5 119/3/5
f 123/5/5 121/5/5 120/5/5
f 123/3/5 120/3/5 122/3/5
f 124/5/5 121/5/5 123/5/5
f 129/5/5 126/5/5 125/5/5
f 130/5/5 126/5/5 129/5/5
f 135/5/5 128/5/5 127/5/5
f 136/5/5 128/5/5 135/5/5
f 137/4/5 131/4/5 130/4/5
f 138/1/5 132/1/5 131/1/5
f 138/4/5 131/4/5 137/4/5
f 139/1/5 132/1/5 138/1/5
f 140/1/5 134/1/5 133/1/5
f 141/4/5 135/4/5 134/4/5
f 141/1/5 134/1/5 140/1/5
f 142/4/5 135/4/5 141/4/5
f 145/2/5 144/2/5 143/2/5
f 146/2/5 144/2/5 145/2/5
f 147/3/6 148/3/6 150/3/6
f 150/3/6 148/3/6 151/3/6
f 149/3/6 150/3/6 153/3/6
f 150/3/6 151/3/6 153/3/6
f 153/3/6 151/3/6 154/3/6
f 151/5/6 152/5/6 155/5/6
f 154/3/6 151/3/6 155/3/6
f 155/5/6 152/5/6 156/5/6
f 154/3/6 155/3/6 157/3/6
f 157/3/6 155/3/6 158/3/6
f 159/4/6 160/4/6 165/4/6
f 160/1/6 161/1/6 166/1/6
f 165/4/6 160/4/6 166/4/6
f 166/1/6 161/1/6 167/1/6
f 162/1/6 163/1/6 168/1/6
f 163/4/6 164/4/6 169/4/6
f 168/1/6 163/1/6 169/1/6
f 169/4/6 164/4/6 170/4/6
f 171/3/6 172/3/6 175/3/6
f 172/2/6 173/2/6 176/2/6
f 175/3/6 172/3/6 176/3/6
f 173/3/6 174/3/6 177/3/6
f 176/2/6 173/2/6 177/2/6
f 177/3/6 174/3/6 178/3/6
