# MagicaVoxel @ Ephtracy

# group
o 

# material
mtllib armário azul.mtl
usemtl palette

# normals
vn 0 0 1
vn 0 0 -1
vn 1 0 0
vn -1 0 0
vn 0 -1 0
vn 0 1 0

# texcoords
vt 0.939453 0.5
vt 0.978516 0.5
vt 0.994141 0.5

# verts
v -4 18.6 30.3
v -5 18.6 30.3
v -4 21.7 30.3
v -5 21.7 30.3
v -3.9 20.2 29.6
v -4 20.2 29.6
v -3.9 20.4 29.6
v -4 20.4 29.6
v -4.1 20.7 29.5
v -4.7 20.7 29.5
v -4 20.9 29.5
v -4.1 20.9 29.5
v -4 21 29.5
v -4.1 21 29.5
v -4 21.1 29.5
v -4.1 21.1 29.5
v -4 21.2 29.5
v -4.1 21.2 29.5
v -4 21.3 29.5
v -4.1 21.3 29.5
v -4 21.4 29.5
v -4.1 21.4 29.5
v -4.7 21.4 29.5
v -4.1 20.7 30.1
v -4.7 20.7 30.1
v -4 20.9 30.1
v -4.1 20.9 30.1
v -4 21 30.1
v -4.1 21 30.1
v -4 21.1 30.1
v -4.1 21.1 30.1
v -4 21.2 30.1
v -4.1 21.2 30.1
v -4 21.3 30.1
v -4.1 21.3 30.1
v -4 21.4 30.1
v -4.1 21.4 30.1
v -4.7 21.4 30.1
v -3.9 20.2 29.5
v -4 20.2 29.5
v -3.9 20.4 29.5
v -4 20.4 29.5
v -4 18.6 29.3
v -5 18.6 29.3
v -4 21.7 29.3
v -5 21.7 29.3
v -3.9 20.2 29.6
v -3.9 20.4 29.6
v -3.9 20.2 29.5
v -3.9 20.4 29.5
v -4 18.6 30.3
v -4 21.7 30.3
v -4 20.9 30.1
v -4 21 30.1
v -4 21.1 30.1
v -4 21.2 30.1
v -4 21.3 30.1
v -4 21.4 30.1
v -4 20.2 29.6
v -4 20.4 29.6
v -4 20.2 29.5
v -4 20.4 29.5
v -4 20.9 29.5
v -4 21 29.5
v -4 21.1 29.5
v -4 21.2 29.5
v -4 21.3 29.5
v -4 21.4 29.5
v -4 18.6 29.3
v -4 21.7 29.3
v -4.7 20.7 30.1
v -4.7 21.4 30.1
v -4.7 20.7 29.5
v -4.7 21.4 29.5
v -4.1 20.7 30.1
v -4.1 20.9 30.1
v -4.1 21 30.1
v -4.1 21.1 30.1
v -4.1 21.2 30.1
v -4.1 21.3 30.1
v -4.1 20.7 29.5
v -4.1 20.9 29.5
v -4.1 21 29.5
v -4.1 21.1 29.5
v -4.1 21.2 29.5
v -4.1 21.3 29.5
v -5 18.6 30.3
v -5 21.7 30.3
v -5 18.6 29.3
v -5 21.7 29.3
v -4 18.6 30.3
v -4 18.6 29.3
v -5 18.6 30.3
v -5 18.6 29.3
v -3.9 20.2 29.6
v -3.9 20.2 29.5
v -4 20.2 29.6
v -4 20.2 29.5
v -4 21 30.1
v -4 21 29.5
v -4.1 21 30.1
v -4.1 21 29.5
v -4 21.2 30.1
v -4 21.2 29.5
v -4.1 21.2 30.1
v -4.1 21.2 29.5
v -4 21.4 30.1
v -4 21.4 29.5
v -4.1 21.4 30.1
v -4.1 21.4 29.5
v -4.7 21.4 30.1
v -4.7 21.4 29.5
v -3.9 20.4 29.6
v -3.9 20.4 29.5
v -4 20.4 29.6
v -4 20.4 29.5
v -4.1 20.7 30.1
v -4.1 20.7 29.5
v -4.7 20.7 30.1
v -4.7 20.7 29.5
v -4 20.9 30.1
v -4 20.9 29.5
v -4.1 20.9 30.1
v -4.1 20.9 29.5
v -4 21.1 30.1
v -4 21.1 29.5
v -4.1 21.1 30.1
v -4.1 21.1 29.5
v -4 21.3 30.1
v -4 21.3 29.5
v -4.1 21.3 30.1
v -4.1 21.3 29.5
v -4 21.7 30.3
v -4 21.7 29.3
v -5 21.7 30.3
v -5 21.7 29.3

# faces
f 3/3/1 2/3/1 1/3/1
f 4/3/1 2/3/1 3/3/1
f 7/1/1 6/1/1 5/1/1
f 8/1/1 6/1/1 7/1/1
f 12/2/1 10/2/1 9/2/1
f 13/3/1 12/3/1 11/3/1
f 14/2/1 10/2/1 12/2/1
f 14/3/1 12/3/1 13/3/1
f 16/2/1 10/2/1 14/2/1
f 17/3/1 16/3/1 15/3/1
f 18/2/1 10/2/1 16/2/1
f 18/3/1 16/3/1 17/3/1
f 20/2/1 10/2/1 18/2/1
f 21/3/1 20/3/1 19/3/1
f 22/2/1 10/2/1 20/2/1
f 22/3/1 20/3/1 21/3/1
f 23/2/1 10/2/1 22/2/1
f 24/2/2 25/2/2 27/2/2
f 26/3/2 27/3/2 28/3/2
f 27/2/2 25/2/2 29/2/2
f 28/3/2 27/3/2 29/3/2
f 29/2/2 25/2/2 31/2/2
f 30/3/2 31/3/2 32/3/2
f 31/2/2 25/2/2 33/2/2
f 32/3/2 31/3/2 33/3/2
f 33/2/2 25/2/2 35/2/2
f 34/3/2 35/3/2 36/3/2
f 35/2/2 25/2/2 37/2/2
f 36/3/2 35/3/2 37/3/2
f 37/2/2 25/2/2 38/2/2
f 39/1/2 40/1/2 41/1/2
f 41/1/2 40/1/2 42/1/2
f 43/3/2 44/3/2 45/3/2
f 45/3/2 44/3/2 46/3/2
f 49/1/3 48/1/3 47/1/3
f 50/1/3 48/1/3 49/1/3
f 53/3/3 52/3/3 51/3/3
f 54/3/3 52/3/3 53/3/3
f 55/3/3 52/3/3 54/3/3
f 56/3/3 52/3/3 55/3/3
f 57/3/3 52/3/3 56/3/3
f 58/3/3 52/3/3 57/3/3
f 59/3/3 53/3/3 51/3/3
f 60/3/3 53/3/3 59/3/3
f 61/3/3 59/3/3 51/3/3
f 62/3/3 53/3/3 60/3/3
f 63/3/3 53/3/3 62/3/3
f 64/3/3 55/3/3 54/3/3
f 65/3/3 55/3/3 64/3/3
f 66/3/3 57/3/3 56/3/3
f 67/3/3 57/3/3 66/3/3
f 68/3/3 52/3/3 58/3/3
f 69/3/3 67/3/3 66/3/3
f 69/3/3 68/3/3 67/3/3
f 69/3/3 65/3/3 64/3/3
f 69/3/3 63/3/3 62/3/3
f 69/3/3 66/3/3 65/3/3
f 69/3/3 61/3/3 51/3/3
f 69/3/3 64/3/3 63/3/3
f 69/3/3 62/3/3 61/3/3
f 70/3/3 52/3/3 68/3/3
f 70/3/3 68/3/3 69/3/3
f 73/2/3 72/2/3 71/2/3
f 74/2/3 72/2/3 73/2/3
f 75/3/4 76/3/4 81/3/4
f 81/3/4 76/3/4 82/3/4
f 77/3/4 78/3/4 83/3/4
f 83/3/4 78/3/4 84/3/4
f 79/3/4 80/3/4 85/3/4
f 85/3/4 80/3/4 86/3/4
f 87/3/4 88/3/4 89/3/4
f 89/3/4 88/3/4 90/3/4
f 93/3/5 92/3/5 91/3/5
f 94/3/5 92/3/5 93/3/5
f 97/1/5 96/1/5 95/1/5
f 98/1/5 96/1/5 97/1/5
f 101/3/5 100/3/5 99/3/5
f 102/3/5 100/3/5 101/3/5
f 105/3/5 104/3/5 103/3/5
f 106/3/5 104/3/5 105/3/5
f 109/3/5 108/3/5 107/3/5
f 110/3/5 108/3/5 109/3/5
f 111/2/5 110/2/5 109/2/5
f 112/2/5 110/2/5 111/2/5
f 113/1/6 114/1/6 115/1/6
f 115/1/6 114/1/6 116/1/6
f 117/2/6 118/2/6 119/2/6
f 119/2/6 118/2/6 120/2/6
f 121/3/6 122/3/6 123/3/6
f 123/3/6 122/3/6 124/3/6
f 125/3/6 126/3/6 127/3/6
f 127/3/6 126/3/6 128/3/6
f 129/3/6 130/3/6 131/3/6
f 131/3/6 130/3/6 132/3/6
f 133/3/6 134/3/6 135/3/6
f 135/3/6 134/3/6 136/3/6
