# MagicaVoxel @ Ephtracy

# group
o 

# material
mtllib armário amarelo.mtl
usemtl palette

# normals
vn 0 0 1
vn 0 0 -1
vn 1 0 0
vn -1 0 0
vn 0 -1 0
vn 0 1 0

# texcoords
vt 0.939453 0.5
vt 0.951172 0.5
vt 0.978516 0.5

# verts
v -4 14.1 19.2
v -5 14.1 19.2
v -4 17.2 19.2
v -5 17.2 19.2
v -3.9 15.7 18.5
v -4 15.7 18.5
v -3.9 15.9 18.5
v -4 15.9 18.5
v -4.1 16.2 18.4
v -4.7 16.2 18.4
v -4 16.4 18.4
v -4.1 16.4 18.4
v -4 16.5 18.4
v -4.1 16.5 18.4
v -4 16.6 18.4
v -4.1 16.6 18.4
v -4 16.7 18.4
v -4.1 16.7 18.4
v -4 16.8 18.4
v -4.1 16.8 18.4
v -4 16.9 18.4
v -4.1 16.9 18.4
v -4.7 16.9 18.4
v -4.1 16.2 19
v -4.7 16.2 19
v -4 16.4 19
v -4.1 16.4 19
v -4 16.5 19
v -4.1 16.5 19
v -4 16.6 19
v -4.1 16.6 19
v -4 16.7 19
v -4.1 16.7 19
v -4 16.8 19
v -4.1 16.8 19
v -4 16.9 19
v -4.1 16.9 19
v -4.7 16.9 19
v -3.9 15.7 18.4
v -4 15.7 18.4
v -3.9 15.9 18.4
v -4 15.9 18.4
v -4 14.1 18.2
v -5 14.1 18.2
v -4 17.2 18.2
v -5 17.2 18.2
v -3.9 15.7 18.5
v -3.9 15.9 18.5
v -3.9 15.7 18.4
v -3.9 15.9 18.4
v -4 14.1 19.2
v -4 17.2 19.2
v -4 16.4 19
v -4 16.5 19
v -4 16.6 19
v -4 16.7 19
v -4 16.8 19
v -4 16.9 19
v -4 15.7 18.5
v -4 15.9 18.5
v -4 15.7 18.4
v -4 15.9 18.4
v -4 16.4 18.4
v -4 16.5 18.4
v -4 16.6 18.4
v -4 16.7 18.4
v -4 16.8 18.4
v -4 16.9 18.4
v -4 14.1 18.2
v -4 17.2 18.2
v -4.7 16.2 19
v -4.7 16.9 19
v -4.7 16.2 18.4
v -4.7 16.9 18.4
v -4.1 16.2 19
v -4.1 16.4 19
v -4.1 16.5 19
v -4.1 16.6 19
v -4.1 16.7 19
v -4.1 16.8 19
v -4.1 16.2 18.4
v -4.1 16.4 18.4
v -4.1 16.5 18.4
v -4.1 16.6 18.4
v -4.1 16.7 18.4
v -4.1 16.8 18.4
v -5 14.1 19.2
v -5 17.2 19.2
v -5 14.1 18.2
v -5 17.2 18.2
v -4 14.1 19.2
v -4 14.1 18.2
v -5 14.1 19.2
v -5 14.1 18.2
v -3.9 15.7 18.5
v -3.9 15.7 18.4
v -4 15.7 18.5
v -4 15.7 18.4
v -4 16.5 19
v -4 16.5 18.4
v -4.1 16.5 19
v -4.1 16.5 18.4
v -4 16.7 19
v -4 16.7 18.4
v -4.1 16.7 19
v -4.1 16.7 18.4
v -4 16.9 19
v -4 16.9 18.4
v -4.1 16.9 19
v -4.1 16.9 18.4
v -4.7 16.9 19
v -4.7 16.9 18.4
v -3.9 15.9 18.5
v -3.9 15.9 18.4
v -4 15.9 18.5
v -4 15.9 18.4
v -4.1 16.2 19
v -4.1 16.2 18.4
v -4.7 16.2 19
v -4.7 16.2 18.4
v -4 16.4 19
v -4 16.4 18.4
v -4.1 16.4 19
v -4.1 16.4 18.4
v -4 16.6 19
v -4 16.6 18.4
v -4.1 16.6 19
v -4.1 16.6 18.4
v -4 16.8 19
v -4 16.8 18.4
v -4.1 16.8 19
v -4.1 16.8 18.4
v -4 17.2 19.2
v -4 17.2 18.2
v -5 17.2 19.2
v -5 17.2 18.2

# faces
f 3/2/1 2/2/1 1/2/1
f 4/2/1 2/2/1 3/2/1
f 7/1/1 6/1/1 5/1/1
f 8/1/1 6/1/1 7/1/1
f 12/3/1 10/3/1 9/3/1
f 13/2/1 12/2/1 11/2/1
f 14/3/1 10/3/1 12/3/1
f 14/2/1 12/2/1 13/2/1
f 16/3/1 10/3/1 14/3/1
f 17/2/1 16/2/1 15/2/1
f 18/3/1 10/3/1 16/3/1
f 18/2/1 16/2/1 17/2/1
f 20/3/1 10/3/1 18/3/1
f 21/2/1 20/2/1 19/2/1
f 22/3/1 10/3/1 20/3/1
f 22/2/1 20/2/1 21/2/1
f 23/3/1 10/3/1 22/3/1
f 24/3/2 25/3/2 27/3/2
f 26/2/2 27/2/2 28/2/2
f 27/3/2 25/3/2 29/3/2
f 28/2/2 27/2/2 29/2/2
f 29/3/2 25/3/2 31/3/2
f 30/2/2 31/2/2 32/2/2
f 31/3/2 25/3/2 33/3/2
f 32/2/2 31/2/2 33/2/2
f 33/3/2 25/3/2 35/3/2
f 34/2/2 35/2/2 36/2/2
f 35/3/2 25/3/2 37/3/2
f 36/2/2 35/2/2 37/2/2
f 37/3/2 25/3/2 38/3/2
f 39/1/2 40/1/2 41/1/2
f 41/1/2 40/1/2 42/1/2
f 43/2/2 44/2/2 45/2/2
f 45/2/2 44/2/2 46/2/2
f 49/1/3 48/1/3 47/1/3
f 50/1/3 48/1/3 49/1/3
f 53/2/3 52/2/3 51/2/3
f 54/2/3 52/2/3 53/2/3
f 55/2/3 52/2/3 54/2/3
f 56/2/3 52/2/3 55/2/3
f 57/2/3 52/2/3 56/2/3
f 58/2/3 52/2/3 57/2/3
f 59/2/3 53/2/3 51/2/3
f 60/2/3 53/2/3 59/2/3
f 61/2/3 59/2/3 51/2/3
f 62/2/3 53/2/3 60/2/3
f 63/2/3 53/2/3 62/2/3
f 64/2/3 55/2/3 54/2/3
f 65/2/3 55/2/3 64/2/3
f 66/2/3 57/2/3 56/2/3
f 67/2/3 57/2/3 66/2/3
f 68/2/3 52/2/3 58/2/3
f 69/2/3 67/2/3 66/2/3
f 69/2/3 68/2/3 67/2/3
f 69/2/3 65/2/3 64/2/3
f 69/2/3 63/2/3 62/2/3
f 69/2/3 66/2/3 65/2/3
f 69/2/3 61/2/3 51/2/3
f 69/2/3 64/2/3 63/2/3
f 69/2/3 62/2/3 61/2/3
f 70/2/3 52/2/3 68/2/3
f 70/2/3 68/2/3 69/2/3
f 73/3/3 72/3/3 71/3/3
f 74/3/3 72/3/3 73/3/3
f 75/2/4 76/2/4 81/2/4
f 81/2/4 76/2/4 82/2/4
f 77/2/4 78/2/4 83/2/4
f 83/2/4 78/2/4 84/2/4
f 79/2/4 80/2/4 85/2/4
f 85/2/4 80/2/4 86/2/4
f 87/2/4 88/2/4 89/2/4
f 89/2/4 88/2/4 90/2/4
f 93/2/5 92/2/5 91/2/5
f 94/2/5 92/2/5 93/2/5
f 97/1/5 96/1/5 95/1/5
f 98/1/5 96/1/5 97/1/5
f 101/2/5 100/2/5 99/2/5
f 102/2/5 100/2/5 101/2/5
f 105/2/5 104/2/5 103/2/5
f 106/2/5 104/2/5 105/2/5
f 109/2/5 108/2/5 107/2/5
f 110/2/5 108/2/5 109/2/5
f 111/3/5 110/3/5 109/3/5
f 112/3/5 110/3/5 111/3/5
f 113/1/6 114/1/6 115/1/6
f 115/1/6 114/1/6 116/1/6
f 117/3/6 118/3/6 119/3/6
f 119/3/6 118/3/6 120/3/6
f 121/2/6 122/2/6 123/2/6
f 123/2/6 122/2/6 124/2/6
f 125/2/6 126/2/6 127/2/6
f 127/2/6 126/2/6 128/2/6
f 129/2/6 130/2/6 131/2/6
f 131/2/6 130/2/6 132/2/6
f 133/2/6 134/2/6 135/2/6
f 135/2/6 134/2/6 136/2/6
