# MagicaVoxel @ Ephtracy

# group
o 

# material
mtllib lixo vermelho 1.mtl
usemtl palette

# normals
vn -1 0 0
vn 1 0 0
vn 0 0 1
vn 0 0 -1
vn 0 -1 0
vn 0 1 0

# texcoords
vt 0.306641 0.5
vt 0.841797 0.5
vt 0.876953 0.5

# verts
v -3.9 0 3.2
v -3.9 0 -5.2
v -3.9 15.8 3.2
v -3.9 15.8 -5.2
v 3.5 7.2 2.8
v 3.5 7.2 -4.8
v 3.5 11.9 2.8
v 3.5 11.9 -4.8
v -0.3 7.2 2.8
v -0.3 7.2 -4.8
v -0.3 14.5 2.8
v -0.3 14.5 -4.8
v 3.9 0 3.2
v 3.9 0 -5.2
v 3.9 11.9 2.8
v 3.9 11.9 -4.8
v 3.9 14.5 2.8
v 3.9 14.5 -4.8
v 3.9 15.8 3.2
v 3.9 15.8 -5.2
v -3.9 0 3.2
v -3.9 15.8 3.2
v 3.9 0 3.2
v 3.9 15.8 3.2
v -0.3 7.2 -4.8
v -0.3 14.5 -4.8
v 3.5 7.2 -4.8
v 3.5 11.9 -4.8
v 3.5 14.5 -4.8
v 3.9 11.9 -4.8
v 3.9 14.5 -4.8
v -0.3 7.2 2.8
v -0.3 14.5 2.8
v 3.5 7.2 2.8
v 3.5 11.9 2.8
v 3.5 14.5 2.8
v 3.9 11.9 2.8
v 3.9 14.5 2.8
v -3.9 0 -5.2
v -3.9 15.8 -5.2
v 3.9 0 -5.2
v 3.9 15.8 -5.2
v -3.9 0 3.2
v 3.9 0 3.2
v -3.9 0 -5.2
v 3.9 0 -5.2
v -0.3 14.5 2.8
v 3.5 14.5 2.8
v 3.9 14.5 2.8
v -0.3 14.5 -4.8
v 3.5 14.5 -4.8
v 3.9 14.5 -4.8
v -0.3 7.2 2.8
v 3.5 7.2 2.8
v -0.3 7.2 -4.8
v 3.5 7.2 -4.8
v 3.5 11.9 2.8
v 3.9 11.9 2.8
v 3.5 11.9 -4.8
v 3.9 11.9 -4.8
v -3.9 15.8 3.2
v 3.9 15.8 3.2
v -3.9 15.8 -5.2
v 3.9 15.8 -5.2

# faces
f 3/2/1 2/2/1 1/2/1
f 4/2/1 2/2/1 3/2/1
f 7/2/1 6/2/1 5/2/1
f 8/2/1 6/2/1 7/2/1
f 9/3/2 10/3/2 11/3/2
f 11/3/2 10/3/2 12/3/2
f 13/2/2 14/2/2 15/2/2
f 15/2/2 14/2/2 16/2/2
f 13/2/2 15/2/2 17/2/2
f 16/2/2 14/2/2 18/2/2
f 13/2/2 17/2/2 19/2/2
f 17/2/2 18/2/2 19/2/2
f 18/2/2 14/2/2 20/2/2
f 19/2/2 18/2/2 20/2/2
f 23/2/3 22/2/3 21/2/3
f 24/2/3 22/2/3 23/2/3
f 27/3/3 26/3/3 25/3/3
f 28/3/3 26/3/3 27/3/3
f 29/3/3 26/3/3 28/3/3
f 30/2/3 29/2/3 28/2/3
f 31/2/3 29/2/3 30/2/3
f 32/3/4 33/3/4 34/3/4
f 34/3/4 33/3/4 35/3/4
f 35/3/4 33/3/4 36/3/4
f 35/2/4 36/2/4 37/2/4
f 37/2/4 36/2/4 38/2/4
f 39/2/4 40/2/4 41/2/4
f 41/2/4 40/2/4 42/2/4
f 45/2/5 44/2/5 43/2/5
f 46/2/5 44/2/5 45/2/5
f 50/2/5 48/2/5 47/2/5
f 50/2/5 49/2/5 48/2/5
f 51/2/5 49/2/5 50/2/5
f 52/2/5 49/2/5 51/2/5
f 53/3/6 54/3/6 55/3/6
f 55/3/6 54/3/6 56/3/6
f 57/2/6 58/2/6 59/2/6
f 59/2/6 58/2/6 60/2/6
f 61/2/6 62/2/6 63/2/6
f 63/2/6 62/2/6 64/2/6
