# MagicaVoxel @ Ephtracy

# group
o 

# material
mtllib lixo amarelo.mtl
usemtl palette

# normals
vn -1 0 0
vn 1 0 0
vn 0 0 1
vn 0 0 -1
vn 0 -1 0
vn 0 1 0

# texcoords
vt 0.0214844 0.5
vt 0.306641 0.5
vt 0.841797 0.5
vt 0.876953 0.5

# verts
v -3.9 0 3.2
v -3.9 0 -5.2
v -3.9 15.8 3.2
v -3.9 15.8 -5.2
v 3.5 7.2 2.8
v 3.5 7.2 -4.8
v 3.5 11.8 2.8
v 3.5 11.8 -4.8
v 3.5 11.9 2.8
v 3.5 11.9 -4.8
v -0.3 7.2 2.8
v -0.3 7.2 -4.8
v -0.3 14.5 2.8
v -0.3 14.5 -4.8
v 3.9 0 3.2
v 3.9 0 -5.2
v 3.9 11.9 2.8
v 3.9 11.9 -4.8
v 3.9 14.5 2.8
v 3.9 14.5 -4.8
v 3.9 15.8 3.2
v 3.9 15.8 -5.2
v -3.9 0 3.2
v -3.9 15.8 3.2
v 3.9 0 3.2
v 3.9 15.8 3.2
v -0.3 7.2 -4.8
v -0.3 14.5 -4.8
v 3.5 7.2 -4.8
v 3.5 11.8 -4.8
v 3.5 11.9 -4.8
v 3.5 14.5 -4.8
v 3.9 11.9 -4.8
v 3.9 14.5 -4.8
v -0.3 7.2 2.8
v -0.3 14.5 2.8
v 3.5 7.2 2.8
v 3.5 11.8 2.8
v 3.5 11.9 2.8
v 3.5 14.5 2.8
v 3.9 11.9 2.8
v 3.9 14.5 2.8
v -3.9 0 -5.2
v -3.9 15.8 -5.2
v 3.9 0 -5.2
v 3.9 15.8 -5.2
v -3.9 0 3.2
v 3.9 0 3.2
v -3.9 0 -5.2
v 3.9 0 -5.2
v -0.3 14.5 2.8
v 3.5 14.5 2.8
v 3.9 14.5 2.8
v -0.3 14.5 -4.8
v 3.5 14.5 -4.8
v 3.9 14.5 -4.8
v -0.3 7.2 2.8
v 3.5 7.2 2.8
v -0.3 7.2 -4.8
v 3.5 7.2 -4.8
v 3.5 11.9 2.8
v 3.9 11.9 2.8
v 3.5 11.9 -4.8
v 3.9 11.9 -4.8
v -3.9 15.8 3.2
v 3.9 15.8 3.2
v -3.9 15.8 -5.2
v 3.9 15.8 -5.2

# faces
f 3/1/1 2/1/1 1/1/1
f 4/1/1 2/1/1 3/1/1
f 7/3/1 6/3/1 5/3/1
f 8/3/1 6/3/1 7/3/1
f 9/1/1 8/1/1 7/1/1
f 10/1/1 8/1/1 9/1/1
f 11/4/2 12/4/2 13/4/2
f 13/4/2 12/4/2 14/4/2
f 15/1/2 16/1/2 17/1/2
f 17/1/2 16/1/2 18/1/2
f 15/1/2 17/1/2 19/1/2
f 18/1/2 16/1/2 20/1/2
f 15/1/2 19/1/2 21/1/2
f 19/1/2 20/1/2 21/1/2
f 20/1/2 16/1/2 22/1/2
f 21/1/2 20/1/2 22/1/2
f 25/1/3 24/1/3 23/1/3
f 26/1/3 24/1/3 25/1/3
f 29/4/3 28/4/3 27/4/3
f 30/4/3 28/4/3 29/4/3
f 31/4/3 28/4/3 30/4/3
f 32/4/3 28/4/3 31/4/3
f 33/1/3 32/1/3 31/1/3
f 34/1/3 32/1/3 33/1/3
f 35/4/4 36/4/4 37/4/4
f 37/4/4 36/4/4 38/4/4
f 38/4/4 36/4/4 39/4/4
f 39/4/4 36/4/4 40/4/4
f 39/1/4 40/1/4 41/1/4
f 41/1/4 40/1/4 42/1/4
f 43/1/4 44/1/4 45/1/4
f 45/1/4 44/1/4 46/1/4
f 49/1/5 48/1/5 47/1/5
f 50/1/5 48/1/5 49/1/5
f 54/1/5 52/1/5 51/1/5
f 54/1/5 53/1/5 52/1/5
f 55/1/5 53/1/5 54/1/5
f 56/1/5 53/1/5 55/1/5
f 57/4/6 58/4/6 59/4/6
f 59/4/6 58/4/6 60/4/6
f 61/1/6 62/1/6 63/1/6
f 63/1/6 62/1/6 64/1/6
f 65/1/6 66/1/6 67/1/6
f 67/1/6 66/1/6 68/1/6
